HIERARCHY
ROOT hip
{
  OFFSET 0 90.174 2.4664
  CHANNELS 6 Xposition Yposition Zposition Zrotation Xrotation Yrotation
  JOINT abdomen
  {
    OFFSET 0 -1.186 -1.5018
    CHANNELS 6 Xposition Yposition Zposition Zrotation Xrotation Yrotation
    JOINT abdomen2
    {
      OFFSET 0 9.964 0.2134
      CHANNELS 6 Xposition Yposition Zposition Zrotation Xrotation Yrotation
      JOINT chest
      {
        OFFSET 0 13.134 -3.2573
        CHANNELS 6 Xposition Yposition Zposition Zrotation Xrotation Yrotation
        JOINT neck
        {
          OFFSET 0 20.686 -1.6905
          CHANNELS 6 Xposition Yposition Zposition Zrotation Xrotation Yrotation
          JOINT head
          {
            OFFSET 0 7.238 -0.1237
            CHANNELS 6 Xposition Yposition Zposition Zrotation Xrotation Yrotation
            End Site
            {
              OFFSET 0 0 0
            }
          }
        }
        JOINT lCollar
        {
          OFFSET 1.7069 20.075 5.0056
          CHANNELS 6 Xposition Yposition Zposition Zrotation Xrotation Yrotation
          JOINT lShldr
          {
            OFFSET 13.6458 -0.047 -4.849
            CHANNELS 6 Xposition Yposition Zposition Zrotation Xrotation Yrotation
            JOINT lForeArm
            {
              OFFSET 28.3255 -0.9759 2.2888
              CHANNELS 6 Xposition Yposition Zposition Zrotation Xrotation Yrotation
              JOINT lHand
              {
                OFFSET 22.1583 -0.53 10.8316
                CHANNELS 6 Xposition Yposition Zposition Zrotation Xrotation Yrotation
                JOINT lThumb1
                {
                  OFFSET 0.786 0.112 2.5817
                  CHANNELS 6 Xposition Yposition Zposition Zrotation Xrotation Yrotation
                  JOINT lThumb2
                  {
                    OFFSET 0.3601 -0.878 4.2331
                    CHANNELS 6 Xposition Yposition Zposition Zrotation Xrotation Yrotation
                    JOINT lThumb2_End
                    {
                      OFFSET 1.8127 -1.216 2.2227
                      CHANNELS 6 Xposition Yposition Zposition Zrotation Xrotation Yrotation
                      End Site
                      {
                        OFFSET 0.0181 -0.0122 0.0222
                      }
                    }
                  }
                }
                JOINT lCarpal1
                {
                  OFFSET 0.9571 1.114 1.7695
                  CHANNELS 6 Xposition Yposition Zposition Zrotation Xrotation Yrotation
                  JOINT lIndex1
                  {
                    OFFSET 4.1246 0.487 4.1451
                    CHANNELS 6 Xposition Yposition Zposition Zrotation Xrotation Yrotation
                    JOINT lIndex2
                    {
                      OFFSET 3.4052 -1.454 2.7682
                      CHANNELS 6 Xposition Yposition Zposition Zrotation Xrotation Yrotation
                      JOINT lIndex2_End
                      {
                        OFFSET 1.4531 -1.795 1.2713
                        CHANNELS 6 Xposition Yposition Zposition Zrotation Xrotation Yrotation
                        End Site
                        {
                          OFFSET 0.0145 -0.0179 0.0127
                        }
                      }
                    }
                  }
                  JOINT lMid1
                  {
                    OFFSET 5.6954 0.21 2.1184
                    CHANNELS 6 Xposition Yposition Zposition Zrotation Xrotation Yrotation
                    JOINT lMid2
                    {
                      OFFSET 3.9766 -1.54 2.3863
                      CHANNELS 6 Xposition Yposition Zposition Zrotation Xrotation Yrotation
                      JOINT lMid2_End
                      {
                        OFFSET 1.4042 -1.926 1.125
                        CHANNELS 6 Xposition Yposition Zposition Zrotation Xrotation Yrotation
                        End Site
                        {
                          OFFSET 0.014 -0.0193 0.0113
                        }
                      }
                    }
                  }
                }
                JOINT lCarpal2
                {
                  OFFSET 2.0956 0.66 -0.3894
                  CHANNELS 6 Xposition Yposition Zposition Zrotation Xrotation Yrotation
                  JOINT lRing1
                  {
                    OFFSET 5.0395 -0.09 2.4971
                    CHANNELS 6 Xposition Yposition Zposition Zrotation Xrotation Yrotation
                    JOINT lRing2
                    {
                      OFFSET 3.7921 -1.552 1.4806
                      CHANNELS 6 Xposition Yposition Zposition Zrotation Xrotation Yrotation
                      JOINT lRing2_End
                      {
                        OFFSET 1.4655 -1.808 0.9609
                        CHANNELS 6 Xposition Yposition Zposition Zrotation Xrotation Yrotation
                        End Site
                        {
                          OFFSET 0.0147 -0.0181 0.0096
                        }
                      }
                    }
                  }
                  JOINT lPinky1
                  {
                    OFFSET 4.9141 -1.269 0.3591
                    CHANNELS 6 Xposition Yposition Zposition Zrotation Xrotation Yrotation
                    JOINT lPinky2
                    {
                      OFFSET 3.1477 -1.685 0.8462
                      CHANNELS 6 Xposition Yposition Zposition Zrotation Xrotation Yrotation
                      JOINT lPinky2_End
                      {
                        OFFSET 0.8055 -1.585 0.7955
                        CHANNELS 6 Xposition Yposition Zposition Zrotation Xrotation Yrotation
                        End Site
                        {
                          OFFSET 0.0081 -0.0158 0.008
                        }
                      }
                    }
                  }
                }
              }
            }
          }
        }
        JOINT rCollar
        {
          OFFSET -1.7069 20.075 5.0056
          CHANNELS 6 Xposition Yposition Zposition Zrotation Xrotation Yrotation
          JOINT rShldr
          {
            OFFSET -13.6458 -0.047 -4.849
            CHANNELS 6 Xposition Yposition Zposition Zrotation Xrotation Yrotation
            JOINT rForeArm
            {
              OFFSET -28.3255 -0.9759 2.2888
              CHANNELS 6 Xposition Yposition Zposition Zrotation Xrotation Yrotation
              JOINT rHand
              {
                OFFSET -22.1583 -0.53 10.8316
                CHANNELS 6 Xposition Yposition Zposition Zrotation Xrotation Yrotation
                JOINT rThumb1
                {
                  OFFSET -0.786 0.112 2.5817
                  CHANNELS 6 Xposition Yposition Zposition Zrotation Xrotation Yrotation
                  JOINT rThumb2
                  {
                    OFFSET -0.3601 -0.878 4.2331
                    CHANNELS 6 Xposition Yposition Zposition Zrotation Xrotation Yrotation
                    JOINT rThumb2_End
                    {
                      OFFSET -1.8127 -1.216 2.2227
                      CHANNELS 6 Xposition Yposition Zposition Zrotation Xrotation Yrotation
                      End Site
                      {
                        OFFSET -0.0181 -0.0122 0.0222
                      }
                    }
                  }
                }
                JOINT rCarpal1
                {
                  OFFSET -0.9571 1.114 1.7695
                  CHANNELS 6 Xposition Yposition Zposition Zrotation Xrotation Yrotation
                  JOINT rIndex1
                  {
                    OFFSET -4.1246 0.487 4.1451
                    CHANNELS 6 Xposition Yposition Zposition Zrotation Xrotation Yrotation
                    JOINT rIndex2
                    {
                      OFFSET -3.4052 -1.454 2.7682
                      CHANNELS 6 Xposition Yposition Zposition Zrotation Xrotation Yrotation
                      JOINT rIndex2_End
                      {
                        OFFSET -1.4531 -1.795 1.2713
                        CHANNELS 6 Xposition Yposition Zposition Zrotation Xrotation Yrotation
                        End Site
                        {
                          OFFSET -0.0145 -0.018 0.0127
                        }
                      }
                    }
                  }
                  JOINT rMid1
                  {
                    OFFSET -5.6954 0.21 2.1184
                    CHANNELS 6 Xposition Yposition Zposition Zrotation Xrotation Yrotation
                    JOINT rMid2
                    {
                      OFFSET -3.9766 -1.54 2.3863
                      CHANNELS 6 Xposition Yposition Zposition Zrotation Xrotation Yrotation
                      JOINT rMid2_End
                      {
                        OFFSET -1.4042 -1.926 1.125
                        CHANNELS 6 Xposition Yposition Zposition Zrotation Xrotation Yrotation
                        End Site
                        {
                          OFFSET -0.014 -0.0193 0.0113
                        }
                      }
                    }
                  }
                }
                JOINT rCarpal2
                {
                  OFFSET -2.0956 0.66 -0.3894
                  CHANNELS 6 Xposition Yposition Zposition Zrotation Xrotation Yrotation
                  JOINT rRing1
                  {
                    OFFSET -5.0395 -0.09 2.4971
                    CHANNELS 6 Xposition Yposition Zposition Zrotation Xrotation Yrotation
                    JOINT rRing2
                    {
                      OFFSET -3.7921 -1.552 1.4806
                      CHANNELS 6 Xposition Yposition Zposition Zrotation Xrotation Yrotation
                      JOINT rRing2_End
                      {
                        OFFSET -1.4655 -1.808 0.9609
                        CHANNELS 6 Xposition Yposition Zposition Zrotation Xrotation Yrotation
                        End Site
                        {
                          OFFSET -0.0147 -0.0181 0.0096
                        }
                      }
                    }
                  }
                  JOINT rPinky1
                  {
                    OFFSET -4.9141 -1.269 0.3592
                    CHANNELS 6 Xposition Yposition Zposition Zrotation Xrotation Yrotation
                    JOINT rPinky2
                    {
                      OFFSET -3.1477 -1.685 0.8462
                      CHANNELS 6 Xposition Yposition Zposition Zrotation Xrotation Yrotation
                      JOINT rPinky2_End
                      {
                        OFFSET -0.8055 -1.585 0.7955
                        CHANNELS 6 Xposition Yposition Zposition Zrotation Xrotation Yrotation
                        End Site
                        {
                          OFFSET -0.0081 -0.0158 0.008
                        }
                      }
                    }
                  }
                }
              }
            }
          }
        }
      }
    }
  }
  JOINT lThigh
  {
    OFFSET 8.367 -8.2066 0.5982
    CHANNELS 6 Xposition Yposition Zposition Zrotation Xrotation Yrotation
    JOINT lShin
    {
      OFFSET 2.1923 -43.463 -0.4932
      CHANNELS 6 Xposition Yposition Zposition Zrotation Xrotation Yrotation
      JOINT lFoot
      {
        OFFSET 0.7333 -45.8593 -2.6451
        CHANNELS 6 Xposition Yposition Zposition Zrotation Xrotation Yrotation
        End Site
        {
          OFFSET 2.6618 -4.2699 12.3931
        }
      }
    }
  }
  JOINT rThigh
  {
    OFFSET -8.367 -8.2066 0.5982
    CHANNELS 6 Xposition Yposition Zposition Zrotation Xrotation Yrotation
    JOINT rShin
    {
      OFFSET -2.1923 -43.463 -0.4931
      CHANNELS 6 Xposition Yposition Zposition Zrotation Xrotation Yrotation
      JOINT rFoot
      {
        OFFSET -0.7333 -45.8593 -2.6451
        CHANNELS 6 Xposition Yposition Zposition Zrotation Xrotation Yrotation
        End Site
        {
          OFFSET -2.6618 -4.2699 12.3931
        }
      }
    }
  }
}
MOTION
Frames:	4
Frame Time:	0.0333333
0 90.174 2.4664 0 0 -0 0 -1.186 -1.5018 0 0 -0 0 9.964 0.2134 0 0 -0 0 13.134 -3.2573 0 0 -0 0 20.686 -1.6905 0 0 -0 0 7.238 -0.1237 0 0 -0 1.7069 20.075 5.0056 0 0 -0 13.6458 -0.047 -4.849 1.66051 0.0835086 5.75766 28.3255 -0.9759 2.2888 -0.0175111 0.895433 15.7816 22.1583 -0.53 10.8316 7.95139e-016 -1.98785e-016 -0 0.786 0.112 2.5817 5.46658e-016 -3.97569e-016 -0 0.3601 -0.878 4.2331 5.96354e-016 0 -0 1.8127 -1.216 2.2227 3.97569e-016 1.98785e-016 9.54166e-015 0.9571 1.114 1.7695 1.49089e-016 -3.97569e-016 -0 4.1246 0.487 4.1451 6.4605e-016 0 3.18055e-015 3.4052 -1.454 2.7682 5.96354e-016 0 3.18055e-015 1.4531 -1.795 1.2713 8.94531e-016 -1.98785e-016 6.36111e-015 5.6954 0.21 2.1184 6.4605e-016 0 3.18055e-015 3.9766 -1.54 2.3863 5.96354e-016 0 3.18055e-015 1.4042 -1.926 1.125 8.94531e-016 -1.98785e-016 6.36111e-015 2.0956 0.66 -0.3894 1.49089e-016 -3.97569e-016 -0 5.0395 -0.09 2.4971 6.4605e-016 0 3.18055e-015 3.7921 -1.552 1.4806 5.96354e-016 0 3.18055e-015 1.4655 -1.808 0.9609 8.94531e-016 -1.98785e-016 6.36111e-015 4.9141 -1.269 0.3591 6.4605e-016 0 3.18055e-015 3.1477 -1.685 0.8462 5.96354e-016 0 3.18055e-015 0.8055 -1.585 0.7955 8.94531e-016 -1.98785e-016 6.36111e-015 -1.7069 20.075 5.0056 0 0 -0 -13.6458 -0.047 -4.849 -1.4496 0.0636048 -5.0245 -28.3255 -0.9759 2.2888 -1.74811 1.20616 -16.8394 -22.1583 -0.53 10.8316 -1.19271e-015 1.98785e-016 -3.18055e-015 -0.786 0.112 2.5817 -3.97569e-016 1.98785e-016 -3.18055e-015 -0.3601 -0.878 4.2331 -2.98177e-016 1.98785e-016 -3.18055e-015 -1.8127 -1.216 2.2227 -2.98177e-016 3.97569e-016 -0 -0.9571 1.114 1.7695 4.96962e-016 0 -6.36111e-015 -4.1246 0.487 4.1451 -9.93923e-017 3.97569e-016 -0 -3.4052 -1.454 2.7682 -8.94531e-016 5.96354e-016 -0 -1.4531 -1.795 1.2713 -3.97569e-016 3.97569e-016 -0 -5.6954 0.21 2.1184 -9.93923e-017 3.97569e-016 -0 -3.9766 -1.54 2.3863 -8.94531e-016 5.96354e-016 -0 -1.4042 -1.926 1.125 -3.97569e-016 3.97569e-016 -0 -2.0956 0.66 -0.3894 4.96962e-016 0 -6.36111e-015 -5.0395 -0.09 2.4971 -9.93923e-017 3.97569e-016 -0 -3.7921 -1.552 1.4806 -8.94531e-016 5.96354e-016 -0 -1.4655 -1.808 0.9609 -3.97569e-016 3.97569e-016 -0 -4.9141 -1.269 0.3592 -9.93923e-017 3.97569e-016 -0 -3.1477 -1.685 0.8462 -8.94531e-016 5.96354e-016 -0 -0.8055 -1.585 0.7955 -3.97569e-016 3.97569e-016 -0 8.367 -8.2066 0.5982 -4.66115 -1.03232 0.120763 2.1923 -43.463 -0.4932 0.00990601 1.55097 0.177175 0.7333 -45.8593 -2.6451 4.65196 -0.54114 -0.255042 -8.367 -8.2066 0.5982 4.66115 -1.03222 -0.120763 -2.1923 -43.463 -0.4931 -0.00990459 1.5509 -0.177176 -0.7333 -45.8593 -2.6451 -4.65196 -0.541171 0.255041 
-7.40378 19.4148 56.051 -180 73.0052 180 0 -1.186 -1.5018 -0.0734913 -7.95296 -0.439211 0 9.964 0.2134 -0.212359 -15.9052 -0.902086 0 13.134 -3.2573 -0.21236 -15.9052 -0.902087 -1.77636e-015 20.686 -1.6905 -4.55711e-005 -15.0007 -1.13808e-005 -1.77636e-015 7.238 -0.1237 -4.03136e-008 -0.792102 -1.01087e-007 1.7069 20.075 5.0056 -2.14507 -5.01639 -40.9523 13.6458 -0.047 -4.849 5.82068 -0.927257 -6.76757 28.3255 -0.9759 2.2888 22.9924 -16.2025 -7.529 22.1583 -0.53 10.8316 12.4152 -10.8904 -8.97637 0.786 0.112 2.5817 -1.38036e-006 -9.83794e-007 -1.55078e-007 0.3601 -0.878 4.2331 1.59028e-015 1.51076e-014 -0 1.8127 -1.216 2.2227 -6.90181e-007 -4.91897e-007 -7.75391e-008 0.9571 1.114 1.7695 0 0 -3.18055e-015 4.1246 0.487 4.1451 -1.38036e-006 -9.83794e-007 -1.55078e-007 3.4052 -1.454 2.7682 3.18055e-015 1.66979e-014 -3.18055e-015 1.4531 -1.795 1.2713 -6.90181e-007 -4.91897e-007 -7.75391e-008 5.6954 0.21 2.1184 -1.38036e-006 -9.83794e-007 -1.55078e-007 3.9766 -1.54 2.3863 3.18055e-015 1.66979e-014 -3.18055e-015 1.4042 -1.926 1.125 -6.90181e-007 -4.91897e-007 -7.75391e-008 2.0956 0.66 -0.3894 0 0 -3.18055e-015 5.0395 -0.09 2.4971 -1.38036e-006 -9.83794e-007 -1.55078e-007 3.7921 -1.552 1.4806 3.18055e-015 1.66979e-014 -3.18055e-015 1.4655 -1.808 0.9609 -6.90181e-007 -4.91897e-007 -7.75391e-008 4.9141 -1.269 0.3591 -1.38036e-006 -9.83794e-007 -1.55078e-007 3.1477 -1.685 0.8462 3.18055e-015 1.66979e-014 -3.18055e-015 0.8055 -1.585 0.7955 -6.90181e-007 -4.91897e-007 -7.75391e-008 -1.7069 20.075 5.0056 2.53021 -5.28239 42.1505 -13.6458 -0.047 -4.849 -5.81769 -0.801089 7.89817 -28.3255 -0.9759 2.2888 -21.6755 -12.8309 7.54677 -22.1583 -0.53 10.8316 -12.0643 -10.5101 7.49793 -0.786 0.112 2.5817 -3.18055e-015 1.59028e-015 -3.18055e-015 -0.3601 -0.878 4.2331 -1.37834e-006 9.74316e-007 -2.34695e-007 -1.8127 -1.216 2.2227 -9.54166e-015 -7.15625e-015 3.18055e-015 -0.9571 1.114 1.7695 -3.18055e-015 -1.59028e-015 3.18055e-015 -4.1246 0.487 4.1451 -8.82781e-032 -1.59028e-015 -3.18055e-015 -3.4052 -1.454 2.7682 -1.37834e-006 9.74316e-007 -2.34695e-007 -1.4531 -1.795 1.2713 -6.36111e-015 -7.15625e-015 3.18055e-015 -5.6954 0.21 2.1184 -8.82781e-032 -1.59028e-015 -3.18055e-015 -3.9766 -1.54 2.3863 -1.37834e-006 9.74316e-007 -2.34695e-007 -1.4042 -1.926 1.125 -6.36111e-015 -7.15625e-015 3.18055e-015 -2.0956 0.66 -0.3894 -3.18055e-015 -1.59028e-015 3.18055e-015 -5.0395 -0.09 2.4971 -8.82781e-032 -1.59028e-015 -3.18055e-015 -3.7921 -1.552 1.4806 -1.37834e-006 9.74316e-007 -2.34695e-007 -1.4655 -1.808 0.9609 -6.36111e-015 -7.15625e-015 3.18055e-015 -4.9141 -1.269 0.3592 -8.82781e-032 -1.59028e-015 -3.18055e-015 -3.1477 -1.685 0.8462 -1.37834e-006 9.74316e-007 -2.34695e-007 -0.8055 -1.585 0.7955 -6.36111e-015 -7.15625e-015 3.18055e-015 8.367 -8.2066 0.5982 -6.84779 -60.8401 -1.92278 2.1923 -43.463 -0.4932 0.643603 45.5138 -0.186498 0.7333 -45.8593 -2.6451 9.91711 13.626 -1.00686 -8.367 -8.2066 0.5982 6.84661 -60.841 1.92731 -2.1923 -43.463 -0.4931 -0.67318 45.4989 0.176362 -0.7333 -45.8593 -2.6451 -9.93768 13.6338 1.02416 
-7.40129 19.1387 56.2836 -180 74.3848 180 0 -1.186 -1.5018 -0.0780347 -7.41918 -0.438334 -8.88178e-016 9.964 0.2134 -0.216636 -14.8375 -0.898416 0 13.134 -3.2573 -0.216636 -14.8375 -0.898416 1.77636e-015 20.686 -1.6905 3.08039e-006 -15.8882 2.32862e-006 0 7.238 -0.1237 -2.89092e-007 -1.57982 -1.51131e-007 1.7069 20.075 5.0056 -1.76611 -5.8349 -40.6062 13.6458 -0.047 -4.849 5.82069 -0.927256 -6.76758 28.3255 -0.9759 2.2888 23.1845 -16.318 -7.72589 22.1583 -0.53 10.8316 12.5634 -11.3982 -8.50938 0.786 0.112 2.5817 3.18055e-015 -1.59028e-015 9.54166e-015 0.3601 -0.878 4.2331 1.59028e-015 -7.95139e-016 3.18055e-015 1.8127 -1.216 2.2227 3.18055e-015 -1.59028e-015 1.27222e-014 0.9571 1.114 1.7695 1.59028e-015 -1.59028e-015 3.18055e-015 4.1246 0.487 4.1451 4.77083e-015 3.97569e-015 -0 3.4052 -1.454 2.7682 3.18055e-015 7.95139e-016 -0 1.4531 -1.795 1.2713 3.18055e-015 -1.59028e-015 9.54166e-015 5.6954 0.21 2.1184 4.77083e-015 3.97569e-015 -0 3.9766 -1.54 2.3863 3.18055e-015 7.95139e-016 -0 1.4042 -1.926 1.125 3.18055e-015 -1.59028e-015 9.54166e-015 2.0956 0.66 -0.3894 1.59028e-015 -1.59028e-015 3.18055e-015 5.0395 -0.09 2.4971 4.77083e-015 3.97569e-015 -0 3.7921 -1.552 1.4806 3.18055e-015 7.95139e-016 -0 1.4655 -1.808 0.9609 3.18055e-015 -1.59028e-015 9.54166e-015 4.9141 -1.269 0.3591 4.77083e-015 3.97569e-015 -0 3.1477 -1.685 0.8462 3.18055e-015 7.95139e-016 -0 0.8055 -1.585 0.7955 3.18055e-015 -1.59028e-015 9.54166e-015 -1.7069 20.075 5.0056 2.19063 -6.1043 41.7799 -13.6458 -0.047 -4.849 -5.81769 -0.801079 7.89818 -28.3255 -0.9759 2.2888 -21.8654 -12.9586 7.79333 -22.1583 -0.53 10.8316 -12.2166 -11.0068 6.9984 -0.786 0.112 2.5817 1.32417e-031 2.38542e-015 -3.18055e-015 -0.3601 -0.878 4.2331 -3.18055e-015 4.77083e-015 -6.36111e-015 -1.8127 -1.216 2.2227 1.76556e-031 3.18055e-015 -3.18055e-015 -0.9571 1.114 1.7695 3.18055e-015 -7.95139e-016 -3.18055e-015 -4.1246 0.487 4.1451 3.53113e-031 -6.36111e-015 3.18055e-015 -3.4052 -1.454 2.7682 -6.36111e-015 1.59028e-015 -0 -1.4531 -1.795 1.2713 -6.36111e-015 3.18055e-015 3.18055e-015 -5.6954 0.21 2.1184 3.53113e-031 -6.36111e-015 3.18055e-015 -3.9766 -1.54 2.3863 -6.36111e-015 1.59028e-015 -0 -1.4042 -1.926 1.125 -6.36111e-015 3.18055e-015 3.18055e-015 -2.0956 0.66 -0.3894 3.18055e-015 -7.95139e-016 -3.18055e-015 -5.0395 -0.09 2.4971 3.53113e-031 -6.36111e-015 3.18055e-015 -3.7921 -1.552 1.4806 -6.36111e-015 1.59028e-015 -0 -1.4655 -1.808 0.9609 -6.36111e-015 3.18055e-015 3.18055e-015 -4.9141 -1.269 0.3592 3.53113e-031 -6.36111e-015 3.18055e-015 -3.1477 -1.685 0.8462 -6.36111e-015 1.59028e-015 -0 -0.8055 -1.585 0.7955 -6.36111e-015 3.18055e-015 3.18055e-015 8.367 -8.2066 0.5982 -6.54936 -58.9918 -1.65202 2.1923 -43.463 -0.4932 0.564645 45.2469 -0.143463 0.7333 -45.8593 -2.6451 9.91534 13.612 -1.00555 -8.367 -8.2066 0.5982 6.54729 -59.0029 1.64445 -2.1923 -43.463 -0.4931 -0.667078 45.4744 0.173782 -0.7333 -45.8593 -2.6451 -9.93697 13.6393 1.02443 
-7.39877 18.8645 56.5142 -180 75.7676 180 0 -1.186 -1.5018 -0.0825782 -6.87792 -0.437222 8.88178e-016 9.964 0.2134 -0.220885 -13.755 -0.894295 0 13.134 -3.2573 -0.220886 -13.755 -0.894296 1.77636e-015 20.686 -1.6905 -2.15493e-005 -16.7761 -6.08898e-006 1.77636e-015 7.238 -0.1237 4.21847e-007 -2.36814 3.2896e-007 1.7069 20.075 5.0056 -1.38116 -6.65201 -40.2538 13.6458 -0.047 -4.849 5.82069 -0.927267 -6.76758 28.3255 -0.9759 2.2888 23.3763 -16.4341 -7.92251 22.1583 -0.53 10.8316 12.7163 -11.9051 -8.03991 0.786 0.112 2.5817 -0 -7.95139e-016 -0 0.3601 -0.878 4.2331 0 0 -6.36111e-015 1.8127 -1.216 2.2227 1.59028e-015 0 -6.36111e-015 0.9571 1.114 1.7695 0 0 -0 4.1246 0.487 4.1451 3.18055e-015 6.36111e-015 -3.18055e-015 3.4052 -1.454 2.7682 1.59028e-015 7.95139e-016 -6.36111e-015 1.4531 -1.795 1.2713 1.59028e-015 -7.95139e-016 -0 5.6954 0.21 2.1184 3.18055e-015 6.36111e-015 -3.18055e-015 3.9766 -1.54 2.3863 1.59028e-015 7.95139e-016 -6.36111e-015 1.4042 -1.926 1.125 1.59028e-015 -7.95139e-016 -0 2.0956 0.66 -0.3894 0 0 -0 5.0395 -0.09 2.4971 3.18055e-015 6.36111e-015 -3.18055e-015 3.7921 -1.552 1.4806 1.59028e-015 7.95139e-016 -6.36111e-015 1.4655 -1.808 0.9609 1.59028e-015 -7.95139e-016 -0 4.9141 -1.269 0.3591 3.18055e-015 6.36111e-015 -3.18055e-015 3.1477 -1.685 0.8462 1.59028e-015 7.95139e-016 -6.36111e-015 0.8055 -1.585 0.7955 1.59028e-015 -7.95139e-016 -0 -1.7069 20.075 5.0056 1.84477 -6.92488 41.4033 -13.6458 -0.047 -4.849 -5.81769 -0.801074 7.89818 -28.3255 -0.9759 2.2888 -22.0549 -13.0871 8.03959 -22.1583 -0.53 10.8316 -12.3735 -11.5024 6.49632 -0.786 0.112 2.5817 -3.18055e-015 6.36111e-015 -3.18055e-015 -0.3601 -0.878 4.2331 -3.18055e-015 7.15625e-015 -0 -1.8127 -1.216 2.2227 7.94503e-031 7.15625e-015 -6.36111e-015 -0.9571 1.114 1.7695 -3.18055e-015 0 -3.18055e-015 -4.1246 0.487 4.1451 -3.18055e-015 -3.97569e-015 -0 -3.4052 -1.454 2.7682 0 7.15625e-015 -0 -1.4531 -1.795 1.2713 -6.36111e-015 7.95139e-015 -3.18055e-015 -5.6954 0.21 2.1184 -3.18055e-015 -3.97569e-015 -0 -3.9766 -1.54 2.3863 0 7.15625e-015 -0 -1.4042 -1.926 1.125 -6.36111e-015 7.95139e-015 -3.18055e-015 -2.0956 0.66 -0.3894 -3.18055e-015 0 -3.18055e-015 -5.0395 -0.09 2.4971 -3.18055e-015 -3.97569e-015 -0 -3.7921 -1.552 1.4806 0 7.15625e-015 -0 -1.4655 -1.808 0.9609 -6.36111e-015 7.95139e-015 -3.18055e-015 -4.9141 -1.269 0.3592 -3.18055e-015 -3.97569e-015 -0 -3.1477 -1.685 0.8462 0 7.15625e-015 -0 -0.8055 -1.585 0.7955 -6.36111e-015 7.95139e-015 -3.18055e-015 8.367 -8.2066 0.5982 -6.28207 -57.1348 -1.4125 2.1923 -43.463 -0.4932 0.486398 44.9794 -0.101131 0.7333 -45.8593 -2.6451 9.91374 13.5982 -1.0043 -8.367 -8.2066 0.5982 6.27901 -57.1562 1.39272 -2.1923 -43.463 -0.4931 -0.660993 45.4496 0.171169 -0.7333 -45.8593 -2.6451 -9.93641 13.6451 1.02474 
